<svg width="23" height="16" viewBox="0 0 23 16" fill="none" xmlns="http://www.w3.org/2000/svg">
<path id="Vector" d="M14.8571 6.85714H22.8571V9.14286H14.8571V6.85714ZM16 11.4286H22.8571V13.7143H16V11.4286ZM13.7143 2.28571H22.8571V4.57143H13.7143V2.28571ZM2.28571 16H13.7143V14.8571C13.7143 11.7063 11.1509 9.14286 8 9.14286H5.71429C2.56343 9.14286 0 11.7063 0 14.8571V16H2.28571ZM6.85714 8C9.13714 8 10.8571 6.28 10.8571 4C10.8571 1.72 9.13714 0 6.85714 0C4.57714 0 2.85714 1.72 2.85714 4C2.85714 6.28 4.57714 8 6.85714 8Z" fill="white"/>
</svg>
