<svg width="56" height="20" viewBox="0 0 56 20" fill="none" xmlns="http://www.w3.org/2000/svg">
<path d="M56 0L15.031 17.7979C11.6337 19.2644 8.77997 20 6.47228 20C3.85893 20 1.96191 19.0668 0.785905 17.198C0.0462326 15.9981 -0.170769 14.4768 0.132567 12.6318C0.435902 10.7868 1.24324 8.82276 2.54992 6.73253C3.63959 5.04226 5.42461 2.82109 7.90963 0.0666584C7.06674 1.42046 6.44865 2.90693 6.08028 4.46613C5.42694 7.31103 6.01495 9.39888 7.84429 10.7321C8.71463 11.3534 9.91164 11.6653 11.4377 11.6653C12.6557 11.6653 14.0277 11.4653 15.5537 11.0653L56 0Z" fill="white"/>
</svg>
